<svg>
    <defs>
    
        <!-- navigation -->
     <symbol id="dashboard" width="16" height="16" viewBox="0 0 16 16" fill="none" xmlns="http://www.w3.org/2000/svg">
<path d="M6.16663 0H1.16663C0.523315 0 0 0.523315 0 1.16663V4.16663C0 4.81006 0.523315 5.33337 1.16663 5.33337H6.16663C6.81006 5.33337 7.33337 4.81006 7.33337 4.16663V1.16663C7.33337 0.523315 6.81006 0 6.16663 0Z" fill="white"/>
<path d="M6.16663 6.66602H1.16663C0.523315 6.66602 0 7.18933 0 7.83276V14.8328C0 15.4761 0.523315 15.9994 1.16663 15.9994H6.16663C6.81006 15.9994 7.33337 15.4761 7.33337 14.8328V7.83276C7.33337 7.18933 6.81006 6.66602 6.16663 6.66602Z" fill="white"/>
<path d="M14.8334 10.666H9.83337C9.18994 10.666 8.66663 11.1893 8.66663 11.8328V14.8328C8.66663 15.4761 9.18994 15.9994 9.83337 15.9994H14.8334C15.4767 15.9994 16 15.4761 16 14.8328V11.8328C16 11.1893 15.4767 10.666 14.8334 10.666Z" fill="white"/>
<path d="M14.8334 0H9.83337C9.18994 0 8.66663 0.523315 8.66663 1.16663V8.16663C8.66663 8.81006 9.18994 9.33337 9.83337 9.33337H14.8334C15.4767 9.33337 16 8.81006 16 8.16663V1.16663C16 0.523315 15.4767 0 14.8334 0V0Z" fill="white"/>
</symbol>

        <symbol id="profile" width="14" height="14" viewBox="0 0 14 14" fill="none" xmlns="http://www.w3.org/2000/svg">
            <path d="M9.57918 1.01811C8.92429 0.361557 8.00961 0 7.00002 0C5.98505 0 5.06733 0.359369 4.41547 1.01186C3.75655 1.67154 3.4355 2.56808 3.51088 3.53619C3.6603 5.44616 5.2255 6.99989 7.00002 6.99989C8.77454 6.99989 10.337 5.44647 10.4888 3.53682C10.5652 2.57746 10.2421 1.68279 9.57918 1.01811Z" fill="#A0A0A0"/>
            <path d="M12.9229 13.9999H1.07709C0.922035 14.0018 0.768484 13.9715 0.627605 13.9114C0.486727 13.8512 0.362063 13.7626 0.262685 13.6521C0.0439413 13.4093 -0.0442294 13.0777 0.0210573 12.7424C0.305088 11.2793 1.19151 10.0503 2.58474 9.1875C3.82249 8.42157 5.39038 8.00002 7 8.00002C8.60962 8.00002 10.1775 8.42188 11.4153 9.1875C12.8085 10.05 13.6949 11.279 13.9789 12.7421C14.0442 13.0774 13.9561 13.409 13.7373 13.6518C13.638 13.7624 13.5133 13.851 13.3724 13.9112C13.2316 13.9715 13.078 14.0018 12.9229 13.9999Z" fill="#A0A0A0"/>
        </symbol>
        <symbol id="services" width="16" height="14" viewBox="0 0 16 14" fill="none" xmlns="http://www.w3.org/2000/svg">
            <path d="M0 6.37079L1.73034 4.16854L7.55056 6.52809L5.74157 8.80899L0 6.37079Z" fill="#A0A0A0"/>
            <path d="M2.1236 4.01124L0.314607 1.73034L6.29214 0L7.78652 2.04494L9.2809 0L15.1798 1.73034L13.4494 4.01124L7.86517 2.35955L2.1236 4.01124Z" fill="#A0A0A0"/>
            <path d="M9.67416 8.80899L7.86517 6.37079L13.6854 4.16854L15.4944 6.52809L9.67416 8.80899Z" fill="#A0A0A0"/>
            <path d="M9.51685 9.1236L8.02247 7.23596V14L13.6854 11.7191V7.47191L9.51685 9.1236Z" fill="#A0A0A0"/>
            <path d="M5.97753 9.1236L7.55056 7L7.62921 13.9213L1.80899 11.7191V7.55056L5.97753 9.1236Z" fill="#A0A0A0"/>
        </symbol>
        <symbol id="records" width="11" height="14" viewBox="0 0 11 14" fill="none" xmlns="http://www.w3.org/2000/svg">
        <path d="M9 0.933333H8.64344C8.59322 0.933286 8.54419 0.919127 8.50272 0.892699C8.46125 0.866271 8.42927 0.8288 8.41094 0.785167C8.31487 0.554125 8.14629 0.355549 7.92726 0.215448C7.70823 0.0753462 7.44897 0.000251685 7.18344 0H3.81656C3.55103 0.000251685 3.29177 0.0753462 3.07274 0.215448C2.85371 0.355549 2.68513 0.554125 2.58906 0.785167C2.57073 0.8288 2.53875 0.866271 2.49728 0.892699C2.45581 0.919127 2.40678 0.933286 2.35656 0.933333H2C1.46957 0.933333 0.960859 1.13 0.585786 1.48007C0.210714 1.83014 0 2.30493 0 2.8V12.1333C0 12.6284 0.210714 13.1032 0.585786 13.4533C0.960859 13.8033 1.46957 14 2 14H9C9.53043 14 10.0391 13.8033 10.4142 13.4533C10.7893 13.1032 11 12.6284 11 12.1333V2.8C11 2.30493 10.7893 1.83014 10.4142 1.48007C10.0391 1.13 9.53043 0.933333 9 0.933333ZM7.49594 2.8H3.50406C3.37145 2.8 3.24428 2.75083 3.15051 2.66332C3.05674 2.5758 3.00406 2.4571 3.00406 2.33333C3.00406 2.20957 3.05674 2.09087 3.15051 2.00335C3.24428 1.91583 3.37145 1.86667 3.50406 1.86667H7.49594C7.62855 1.86667 7.75572 1.91583 7.84949 2.00335C7.94326 2.09087 7.99594 2.20957 7.99594 2.33333C7.99594 2.4571 7.94326 2.5758 7.84949 2.66332C7.75572 2.75083 7.62855 2.8 7.49594 2.8Z" fill="#A0A0A0"/>
        </symbol>
        <symbol id="wallet" width="15" height="14" viewBox="0 0 15 14" fill="none" xmlns="http://www.w3.org/2000/svg">
        <path d="M9.49197 0.969461C9.531 0.94083 9.57071 0.934753 9.59729 0.934753C9.62479 0.934753 9.69385 0.942174 9.74235 1.00826L11.0926 2.85H12.2662L10.5059 0.4486C10.1527 -0.0328494 9.41539 -0.14758 8.93208 0.206429L8.29514 0.673212L8.8548 1.43671L9.49197 0.969461Z" fill="#A0A0A0"/>
        <path d="M6.23658 0.969854C6.27561 0.941222 6.31555 0.934707 6.34214 0.934707C6.36963 0.934707 6.4387 0.942128 6.4872 1.00821L7.83741 2.84996H9.0111L7.25069 0.448554C6.89736 -0.0328951 6.16068 -0.147626 5.67692 0.206383L2.06954 2.84996H3.67084L6.23658 0.969854Z" fill="#A0A0A0"/>
        <path d="M7.63804 8.89829C7.63804 7.7397 8.58063 6.7969 9.73919 6.7969H13.295V4.66265C13.295 4.18482 12.9073 3.79654 12.4291 3.79654H0.865872C0.387695 3.79651 0 4.18476 0 4.66262V13.1339C0 13.6123 0.387695 14 0.865872 14H12.4291C12.9073 14 13.295 13.6123 13.295 13.1339V10.9996H9.73919C8.58057 10.9996 7.63804 10.0569 7.63804 8.89829Z" fill="#A0A0A0"/>
        <path d="M13.7629 7.50665H9.73923C8.97094 7.50665 8.34797 8.12965 8.34797 8.8982C8.34797 9.66684 8.97094 10.2897 9.73923 10.2897H13.763C14.0168 10.2897 14.2226 10.0836 14.2226 9.83033V7.96644C14.2226 7.71273 14.0167 7.50665 13.7629 7.50665Z" fill="#A0A0A0"/>
        </symbol>
            <symbol id="messages" width="16" height="14" viewBox="0 0 16 14" fill="none" xmlns="http://www.w3.org/2000/svg">
        <path d="M13.8783 10.6694C15.0486 10.6694 16.0005 9.71737 16.0005 8.54721V2.12242C16.0005 0.952188 15.0486 0 13.8783 0H2.12189C0.951852 0 0 0.952188 0 2.12242V8.54721C0 9.71737 0.951852 10.6694 2.12189 10.6694H3.6662V12.8908C3.6662 13.161 3.82889 13.4044 4.07838 13.5078C4.16108 13.542 4.24781 13.5585 4.33374 13.5585C4.50747 13.5585 4.67832 13.4907 4.80606 13.363L7.49906 10.6694H13.8783Z" fill="#A0A0A0"/>
        </symbol>
        <symbol id="resources" width="13" height="14" viewBox="0 0 13 14" fill="none" xmlns="http://www.w3.org/2000/svg">
        <path d="M0 1.58377H2.95071V3.05912H0V1.58377ZM0 3.64926H2.95071V12.1643H0V3.64926ZM0.540906 10.3076C0.540906 10.8169 0.953499 11.2299 1.46304 11.2299C1.97242 11.2299 2.38518 10.8173 2.38518 10.3076C2.38518 9.79786 1.97242 9.38527 1.46304 9.38527C0.953499 9.38543 0.540906 9.79853 0.540906 10.3076ZM0 13.9347H2.95071V12.7545H0V13.9347ZM9.58709 0L7.56375 0.415122L7.86051 1.86029L9.88385 1.44517L9.58709 0ZM12.0185 11.8515L9.99547 12.2668L7.97871 2.43863L10.002 2.02351L12.0185 11.8515ZM11.3165 10.0998C11.2142 9.60126 10.8154 9.26167 10.4271 9.34143C10.0381 9.42152 9.80528 9.89076 9.9083 10.3893C10.0105 10.8879 10.4089 11.2279 10.7976 11.1478C11.1867 11.068 11.4192 10.5991 11.3165 10.0998ZM12.1373 12.4289L10.1137 12.8443L10.3511 14L12.3744 13.5847L12.1373 12.4289ZM4.21529 1.54162H7.166V0.0662644H4.21529V1.54162ZM4.21529 13.9347H7.166V12.7545H4.21529V13.9347ZM4.21529 10.689H7.166V3.60711H4.21529V10.689ZM4.21529 12.1643H7.166V11.2791H4.21529V12.1643ZM4.21529 3.01697H7.166V2.13176H4.21529V3.01697Z" fill="#A0A0A0"/>
        </symbol>

        <symbol id="settings" width="16" height="16" viewBox="0 0 16 16" fill="none" xmlns="http://www.w3.org/2000/svg">
        <path d="M15.6235 6.17822L14.3938 5.91089C14.2869 5.5835 14.1544 5.26416 13.998 4.95654L14.6788 3.89758C14.8004 3.70837 14.7737 3.45996 14.6147 3.30103L12.699 1.38525C12.54 1.22632 12.2916 1.19958 12.1024 1.32117L11.0435 2.00195C10.7358 1.84558 10.4165 1.71313 10.0891 1.6062L9.82178 0.376465C9.77405 0.156738 9.57947 0 9.35461 0H6.64539C6.42053 0 6.22595 0.156738 6.17822 0.376465L5.91089 1.6062C5.5835 1.71313 5.26416 1.84558 4.95654 2.00195L3.89758 1.32117C3.70837 1.19958 3.45996 1.22632 3.30103 1.38525L1.38525 3.30103C1.22632 3.45996 1.19958 3.70837 1.32117 3.89758L2.00195 4.95654C1.84558 5.26416 1.71313 5.5835 1.6062 5.91089L0.376465 6.17822C0.156738 6.22607 0 6.42053 0 6.64539V9.35461C0 9.57947 0.156738 9.77393 0.376465 9.82178L1.6062 10.0891C1.71313 10.4165 1.84558 10.7358 2.00195 11.0435L1.32117 12.1024C1.19958 12.2916 1.22632 12.54 1.38525 12.699L3.30103 14.6147C3.45996 14.7737 3.70837 14.8004 3.89758 14.6788L4.95654 13.998C5.26416 14.1544 5.5835 14.2869 5.91089 14.3938L6.17822 15.6235C6.22595 15.8433 6.42053 16 6.64539 16H9.35461C9.57947 16 9.77405 15.8433 9.82178 15.6235L10.0891 14.3938C10.4165 14.2869 10.7358 14.1544 11.0435 13.998L12.1024 14.6788C12.2916 14.8004 12.54 14.7738 12.699 14.6147L14.6147 12.699C14.7737 12.54 14.8004 12.2916 14.6788 12.1024L13.998 11.0435C14.1544 10.7358 14.2869 10.4165 14.3938 10.0891L15.6235 9.82178C15.8433 9.77393 16 9.57947 16 9.35461V6.64539C16 6.42053 15.8433 6.22607 15.6235 6.17822ZM10.8685 8C10.8685 9.58167 9.58167 10.8685 8 10.8685C6.41833 10.8685 5.13147 9.58167 5.13147 8C5.13147 6.41833 6.41833 5.13147 8 5.13147C9.58167 5.13147 10.8685 6.41833 10.8685 8Z" fill="#A0A0A0"/>
        </symbol>
        <symbol id="support" width="16" height="16" viewBox="0 0 16 16" fill="none" xmlns="http://www.w3.org/2000/svg">
        <path d="M13.6372 2.36284C12.8982 1.61656 12.0191 1.02365 11.0503 0.618165C10.0815 0.212679 9.0421 0.00260903 7.99187 2.4149e-05C6.94164 -0.00256073 5.90125 0.20239 4.93047 0.603103C3.95969 1.00381 3.07765 1.59239 2.33502 2.33502C1.59239 3.07765 1.00381 3.95969 0.603103 4.93047C0.20239 5.90125 -0.00256073 6.94164 2.4149e-05 7.99187C0.00260903 9.0421 0.212679 10.0815 0.618165 11.0503C1.02365 12.0191 1.61656 12.8982 2.36284 13.6372C3.1018 14.3834 3.98093 14.9763 4.94973 15.3818C5.91853 15.7873 6.9579 15.9974 8.00813 16C9.05836 16.0026 10.0987 15.7976 11.0695 15.3969C12.0403 14.9962 12.9224 14.4076 13.665 13.665C14.4076 12.9224 14.9962 12.0403 15.3969 11.0695C15.7976 10.0987 16.0026 9.05836 16 8.00813C15.9974 6.9579 15.7873 5.91853 15.3818 4.94973C14.9763 3.98093 14.3834 3.1018 13.6372 2.36284ZM5.72684 8.14877C5.69664 7.68658 5.80805 7.22617 6.04622 6.82893C6.2844 6.43169 6.63801 6.1165 7.05992 5.92538C7.48182 5.73427 7.95196 5.67631 8.40765 5.75925C8.86333 5.84219 9.2829 6.06207 9.61042 6.38958C9.93793 6.7171 10.1578 7.13667 10.2407 7.59235C10.3237 8.04804 10.2657 8.51818 10.0746 8.94009C9.88351 9.36199 9.56831 9.7156 9.17107 9.95378C8.77383 10.192 8.31342 10.3034 7.85123 10.2732C7.29983 10.2366 6.78048 10.001 6.38972 9.61028C5.99897 9.21953 5.76341 8.70017 5.72684 8.14877ZM14.2685 5.77702L10.8387 5.98487C10.8152 5.98611 10.7918 5.9816 10.7705 5.97174C10.7491 5.96188 10.7305 5.94696 10.7163 5.92828C10.5315 5.68621 10.3152 5.46992 10.0731 5.28516C10.0545 5.2709 10.0395 5.25229 10.0297 5.23096C10.0198 5.20962 10.0153 5.1862 10.0166 5.16273L10.2244 1.73289C10.2257 1.71053 10.2322 1.68879 10.2434 1.66943C10.2547 1.65007 10.2704 1.63364 10.2892 1.62147C10.3079 1.6093 10.3293 1.60173 10.3516 1.59939C10.3739 1.59704 10.3964 1.59998 10.4173 1.60796C11.3228 1.95289 12.1451 2.48548 12.8301 3.17076C13.5151 3.85605 14.0474 4.67851 14.392 5.58412C14.4 5.60504 14.403 5.62755 14.4006 5.64982C14.3983 5.67208 14.3907 5.69348 14.3785 5.71228C14.3664 5.73107 14.3499 5.74673 14.3306 5.75798C14.3112 5.76923 14.2895 5.77575 14.2671 5.77702H14.2685ZM5.77702 1.73289L5.98487 5.16273C5.98611 5.1862 5.9816 5.20962 5.97174 5.23096C5.96188 5.25229 5.94696 5.2709 5.92828 5.28516C5.68621 5.46992 5.46992 5.68621 5.28516 5.92828C5.2709 5.94696 5.25229 5.96188 5.23096 5.97174C5.20962 5.9816 5.1862 5.98611 5.16273 5.98487L1.73289 5.77702C1.71053 5.77575 1.68879 5.76923 1.66943 5.75798C1.65007 5.74673 1.63364 5.73107 1.62147 5.71228C1.6093 5.69348 1.60173 5.67208 1.59939 5.64982C1.59704 5.62755 1.59998 5.60504 1.60796 5.58412C1.95272 4.67837 2.48524 3.85582 3.17053 3.17053C3.85582 2.48524 4.67837 1.95272 5.58412 1.60796C5.60504 1.59998 5.62755 1.59704 5.64982 1.59939C5.67208 1.60173 5.69348 1.6093 5.71228 1.62147C5.73107 1.63364 5.74673 1.65007 5.75798 1.66943C5.76923 1.68879 5.77575 1.71053 5.77702 1.73289ZM1.73289 10.223L5.16273 10.0151C5.1862 10.0139 5.20962 10.0184 5.23096 10.0283C5.25229 10.0381 5.2709 10.053 5.28516 10.0717C5.46992 10.3138 5.68621 10.5301 5.92828 10.7148C5.94696 10.7291 5.96188 10.7477 5.97174 10.769C5.9816 10.7904 5.98611 10.8138 5.98487 10.8373L5.77702 14.2671C5.77575 14.2895 5.76923 14.3112 5.75798 14.3306C5.74673 14.3499 5.73107 14.3664 5.71228 14.3785C5.69348 14.3907 5.67208 14.3983 5.64982 14.4006C5.62755 14.403 5.60504 14.4 5.58412 14.392C4.67837 14.0473 3.85582 13.5148 3.17053 12.8295C2.48524 12.1442 1.95272 11.3216 1.60796 10.4159C1.59998 10.395 1.59704 10.3725 1.59939 10.3502C1.60173 10.3279 1.6093 10.3065 1.62147 10.2877C1.63364 10.2689 1.65007 10.2533 1.66943 10.242C1.68879 10.2308 1.71053 10.2242 1.73289 10.223ZM10.223 14.2671L10.0151 10.8373C10.0139 10.8138 10.0184 10.7904 10.0283 10.769C10.0381 10.7477 10.053 10.7291 10.0717 10.7148C10.3138 10.5301 10.5301 10.3138 10.7148 10.0717C10.7291 10.053 10.7477 10.0381 10.769 10.0283C10.7904 10.0184 10.8138 10.0139 10.8373 10.0151L14.2671 10.223C14.2895 10.2242 14.3112 10.2308 14.3306 10.242C14.3499 10.2533 14.3664 10.2689 14.3785 10.2877C14.3907 10.3065 14.3983 10.3279 14.4006 10.3502C14.403 10.3725 14.4 10.395 14.392 10.4159C14.0473 11.3216 13.5148 12.1442 12.8295 12.8295C12.1442 13.5148 11.3216 14.0473 10.4159 14.392C10.395 14.4 10.3725 14.403 10.3502 14.4006C10.3279 14.3983 10.3065 14.3907 10.2877 14.3785C10.2689 14.3664 10.2533 14.3499 10.242 14.3306C10.2308 14.3112 10.2242 14.2895 10.223 14.2671Z" fill="#A0A0A0"/>
        </symbol>
        <symbol id="logout" width="15" height="14" viewBox="0 0 15 14" fill="none" xmlns="http://www.w3.org/2000/svg">
        <path d="M10.0309 0.699833C10.0309 0.314925 9.71613 0 9.3311 0H0.699833C0.314925 0 0 0.314925 0 0.699833V10.5909C0 10.8474 0.15163 11.0923 0.373244 11.209L5.69197 13.9618C5.92525 14.0784 6.20518 13.9152 6.20518 13.6469V10.9642H9.3311C9.71613 10.9642 10.0309 10.6494 10.0309 10.2643V6.43858H8.63127V9.21458C8.63127 9.41286 8.47964 9.5645 8.28135 9.5645H6.21685V3.62758C6.21685 3.37098 6.06522 3.12604 5.8436 3.0094L2.70602 1.39978H8.28135C8.47964 1.39978 8.63127 1.55141 8.63127 1.7497V3.12604H10.0309V0.699833Z" fill="#A0A0A0"/>
        <path d="M11.8272 1.97108L14.1016 4.24553C14.3932 4.53713 14.3932 4.96869 14.1016 5.26029L11.8272 7.53475C11.5356 7.82634 11.0922 7.83812 10.8006 7.54653C10.5208 7.26671 10.5557 6.80004 10.8241 6.52011L11.8504 5.50535H7.87312C7.67495 5.50535 7.47654 5.4237 7.34824 5.27207C7.02165 4.92216 7.1033 4.30397 7.5232 4.07069C7.62817 4.01237 7.75648 3.97738 7.87312 3.97738H11.8505C11.8505 3.97738 10.8359 2.96262 10.8242 2.96262C10.5558 2.69436 10.5208 2.21614 10.8007 1.94787C11.0807 1.66793 11.5356 1.67948 11.8272 1.97108Z" fill="#A0A0A0"/>
        </symbol>
    </defs>    

</svg>